<?xml version="1.0" standalone="no"?>
<!DOCTYPE svg PUBLIC "-//W3C//DTD SVG 20010904//EN"
 "http://www.w3.org/TR/2001/REC-SVG-20010904/DTD/svg10.dtd">
<svg version="1.0" xmlns="http://www.w3.org/2000/svg"
 width="270.000000pt" height="150.000000pt" viewBox="0 0 270.000000 150.000000"
 preserveAspectRatio="xMidYMid meet">

<g transform="translate(0.000000,150.000000) scale(0.100000,-0.100000)"
fill="#000000" stroke="none">
<path d="M620 785 c0 -158 1 -165 20 -165 18 0 20 7 20 78 0 90 16 116 66 110
34 -4 42 -25 43 -120 1 -53 4 -68 16 -68 12 0 15 15 15 74 0 76 -12 125 -33
138 -20 13 -61 9 -85 -8 l-22 -15 0 70 c0 64 -2 71 -20 71 -19 0 -20 -7 -20
-165z"/>
<path d="M1933 934 c-8 -21 13 -42 28 -27 13 13 5 43 -11 43 -6 0 -13 -7 -17
-16z"/>
<path d="M440 870 c0 -25 -4 -30 -25 -30 -16 0 -25 -6 -25 -15 0 -9 9 -15 23
-15 21 0 22 -3 19 -74 -3 -66 -1 -77 18 -96 18 -18 30 -21 58 -16 40 6 57 19
48 35 -5 8 -13 8 -27 0 -49 -26 -77 21 -64 107 6 42 8 44 41 44 24 0 34 5 34
15 0 10 -11 15 -35 15 -32 0 -35 2 -35 30 0 20 -5 30 -15 30 -10 0 -15 -10
-15 -30z"/>
<path d="M880 730 c0 -91 3 -110 15 -110 12 0 15 14 15 63 0 73 15 107 53 125
24 12 32 11 52 -2 19 -12 24 -13 28 -2 3 8 0 19 -6 25 -16 16 -82 14 -97 -4
-7 -8 -16 -15 -21 -15 -5 0 -9 7 -9 15 0 8 -7 15 -15 15 -12 0 -15 -19 -15
-110z"/>
<path d="M1127 815 c-41 -41 -41 -122 -1 -166 34 -37 144 -32 144 7 0 16 -16
19 -25 4 -3 -5 -22 -10 -41 -10 -38 0 -74 29 -74 60 0 18 7 20 75 20 l75 0 0
30 c0 73 -99 108 -153 55z m101 -11 c41 -29 28 -44 -38 -44 -46 0 -60 3 -60
14 0 17 38 46 60 46 9 0 26 -7 38 -16z"/>
<path d="M1367 815 c-41 -41 -41 -122 -1 -166 34 -37 144 -32 144 7 0 16 -16
19 -25 4 -3 -5 -22 -10 -41 -10 -38 0 -74 29 -74 60 0 18 7 20 75 20 l75 0 0
30 c0 73 -99 108 -153 55z m101 -11 c41 -29 28 -44 -38 -44 -46 0 -60 3 -60
14 0 17 38 46 60 46 9 0 26 -7 38 -16z"/>
<path d="M1850 825 c0 -11 11 -15 40 -15 l40 0 0 -109 c0 -134 -12 -150 -92
-116 -25 10 -24 -21 1 -35 32 -17 68 -12 98 14 27 24 28 27 32 150 l3 126 -61
0 c-48 0 -61 -3 -61 -15z"/>
<path d="M2090 820 c-11 -11 -20 -27 -20 -35 0 -22 40 -54 76 -61 18 -3 41
-15 51 -26 17 -19 17 -20 -2 -34 -24 -18 -59 -18 -94 1 -27 14 -41 11 -41 -7
0 -5 17 -16 37 -24 65 -28 143 1 143 51 0 29 -21 46 -79 66 -33 11 -47 22 -49
37 -4 28 39 40 76 21 15 -7 30 -15 35 -17 4 -2 7 3 7 12 0 38 -105 51 -140 16z"/>
<path d="M1642 648 c2 -15 10 -23 23 -23 13 0 21 8 23 23 3 18 -1 22 -23 22
-22 0 -26 -4 -23 -22z"/>
</g>
</svg>
