<?xml version="1.0" standalone="no"?>
<!DOCTYPE svg PUBLIC "-//W3C//DTD SVG 20010904//EN"
 "http://www.w3.org/TR/2001/REC-SVG-20010904/DTD/svg10.dtd">
<svg version="1.0" xmlns="http://www.w3.org/2000/svg"
 width="510.000000pt" height="554.000000pt" viewBox="0 0 510.000000 554.000000"
 preserveAspectRatio="xMidYMid meet">

<g transform="translate(0.000000,554.000000) scale(0.100000,-0.100000)"
fill="#000000" stroke="none">
<path d="M0 4753 l1 -788 22 66 c31 90 82 172 148 238 44 45 110 87 325 207
148 84 602 339 1008 568 828 467 816 461 889 481 46 12 -100 14 -1170 14
l-1223 1 0 -787z"/>
<path d="M2720 5524 c47 -12 284 -136 402 -210 128 -81 161 -283 83 -507 -29
-85 -329 -617 -402 -714 -73 -96 -193 -201 -320 -276 -212 -128 -453 -167
-813 -131 -256 25 -302 24 -372 -8 -66 -31 -128 -90 -160 -156 -19 -39 -23
-63 -23 -137 0 -81 3 -95 29 -143 34 -60 86 -111 148 -144 35 -19 59 -23 133
-23 106 0 159 21 232 91 31 30 61 49 96 59 70 19 251 45 321 45 52 0 69 7 271
116 119 64 218 114 221 112 2 -3 -96 -81 -218 -174 -123 -92 -256 -195 -297
-227 -207 -164 -538 -357 -696 -406 -94 -29 -189 -128 -221 -229 -23 -75 -16
-191 16 -258 31 -63 111 -143 175 -174 43 -21 64 -25 150 -25 90 0 105 3 152
27 79 42 119 82 174 177 28 47 69 110 92 139 40 52 220 202 313 262 57 36 108
40 124 10 6 -11 14 -20 19 -20 4 0 54 95 110 211 56 116 104 209 107 206 5 -5
-185 -689 -258 -927 -28 -91 -64 -195 -80 -232 -27 -59 -37 -71 -83 -97 -63
-36 -125 -104 -162 -180 -25 -51 -28 -66 -28 -166 0 -99 3 -116 27 -168 37
-79 117 -160 196 -199 54 -27 79 -33 154 -36 100 -5 177 16 255 69 165 114
221 358 121 529 -17 29 -19 45 -14 100 6 69 69 322 112 449 74 224 250 407
370 388 44 -7 63 -24 111 -95 61 -93 75 -142 83 -292 6 -121 9 -141 35 -193
99 -199 346 -262 533 -135 96 66 160 205 148 321 -10 102 -49 167 -180 307
-224 238 -374 435 -416 546 -68 182 -65 385 9 549 34 74 325 583 389 680 58
87 181 210 253 253 92 54 163 74 249 70 75 -3 75 -3 280 -118 155 -87 217
-128 260 -171 65 -66 116 -148 147 -238 l22 -66 1 788 0 787 -1217 -1 c-1089
0 -1212 -2 -1163 -15z"/>
<path d="M0 788 l0 -788 1223 1 c1072 0 1216 2 1170 14 -71 20 -27 -5 -997
542 -474 267 -930 524 -1015 572 -215 121 -300 211 -358 380 l-22 66 -1 -787z"/>
<path d="M5078 1512 c-24 -79 -83 -175 -149 -241 -49 -49 -188 -130 -1105
-648 -700 -395 -1067 -597 -1104 -607 -49 -13 72 -15 1163 -15 l1217 -1 0 785
c0 432 -1 785 -2 785 -2 0 -11 -26 -20 -58z"/>
</g>
</svg>
